<?xml version="1.0" encoding="UTF-8" standalone="no"?>
<!-- Created with Inkscape (http://www.inkscape.org/) -->

<svg
   xmlns:dc="http://purl.org/dc/elements/1.1/"
   xmlns:cc="http://creativecommons.org/ns#"
   xmlns:rdf="http://www.w3.org/1999/02/22-rdf-syntax-ns#"
   xmlns:svg="http://www.w3.org/2000/svg"
   xmlns="http://www.w3.org/2000/svg"
   xmlns:sodipodi="http://sodipodi.sourceforge.net/DTD/sodipodi-0.dtd"
   xmlns:inkscape="http://www.inkscape.org/namespaces/inkscape"
   width="200"
   height="200"
   id="svg2"
   version="1.1"
   inkscape:version="0.48.3.1 r9886"
   sodipodi:docname="horse.svg">
  <defs
     id="defs4" />
  <sodipodi:namedview
     id="base"
     pagecolor="#ffffff"
     bordercolor="#666666"
     borderopacity="1.0"
     inkscape:pageopacity="0.0"
     inkscape:pageshadow="2"
     inkscape:zoom="1.4"
     inkscape:cx="125.18428"
     inkscape:cy="187.68087"
     inkscape:document-units="px"
     inkscape:current-layer="layer1"
     showgrid="false"
     showborder="true"
     inkscape:window-width="1920"
     inkscape:window-height="1029"
     inkscape:window-x="0"
     inkscape:window-y="0"
     inkscape:window-maximized="1"
     showguides="true"
     inkscape:guide-bbox="true"
     borderlayer="true"
     fit-margin-top="2"
     fit-margin-left="2"
     fit-margin-right="2"
     fit-margin-bottom="2" />
  <metadata
     id="metadata7">
    <rdf:RDF>
      <cc:Work
         rdf:about="">
        <dc:format>image/svg+xml</dc:format>
        <dc:type
           rdf:resource="http://purl.org/dc/dcmitype/StillImage" />
        <dc:title />
      </cc:Work>
    </rdf:RDF>
  </metadata>
  <g
     inkscape:label="Layer 1"
     inkscape:groupmode="layer"
     id="layer1"
     transform="translate(-1094.4441,73.665372)">
    <g
       id="g5201"
       transform="translate(-0.0249,0.02491072)">
      <path
         sodipodi:nodetypes="cssscssc"
         inkscape:connector-curvature="0"
         id="path3955"
         d="m 1178.5862,24.518035 c 0,0 -7.5663,0.37618 -12.8503,-0.0436 -5.2839,-0.41976 -10.6088,-0.14771 -14.2576,4.85116 -3.6488,4.99889 -4.3439,14.38183 -4.5778,18.33503 -0.234,3.95319 -3.8215,14.9982 -4.9949,15.93975 -1.1734,0.94153 -0.5244,4.13914 2.2745,4.05838 2.7989,-0.0808 10.5156,-12.43873 11.0282,-16.38023 0.5127,-3.94149 13.4198,-14.29842 13.4198,-14.29842"
         style="fill:#000000;fill-opacity:1;stroke:#000000;stroke-width:0.46528938;stroke-linecap:butt;stroke-linejoin:miter;stroke-miterlimit:4;stroke-opacity:1;stroke-dasharray:none" />
      <path
         sodipodi:nodetypes="ccc"
         inkscape:connector-curvature="0"
         id="path3957"
         d="m 1150.3377,48.597425 c -7.8132,16.35997 -9.8812,22.16016 -19.7065,9.57638 6.7946,12.28636 15.0584,13.98219 19.3125,1.80071"
         style="fill:#000000;fill-opacity:1;stroke:#000000;stroke-width:0.46528938;stroke-linecap:butt;stroke-linejoin:miter;stroke-miterlimit:4;stroke-opacity:1;stroke-dasharray:none" />
      <path
         sodipodi:nodetypes="csscsccc"
         inkscape:connector-curvature="0"
         id="path3959"
         d="m 1154.8097,36.462645 c 0,0 -6.9862,13.47044 -4.7197,16.86732 4.0566,6.07971 1.1115,9.18974 1.6082,13.18593 0.4898,3.94116 0.1906,8.68322 -14.8529,11.45576 10.9253,-0.0156 17.405,-4.35317 18.55,-7.49383 1.6889,-4.63263 10.3062,-12.48405 10.3062,-12.48405 l 15.7134,-29.97742 z"
         style="fill:#000000;fill-opacity:1;stroke:#000000;stroke-width:0.46528938;stroke-linecap:butt;stroke-linejoin:miter;stroke-miterlimit:4;stroke-opacity:1;stroke-dasharray:none" />
      <path
         sodipodi:nodetypes="ccc"
         inkscape:connector-curvature="0"
         id="path3961"
         d="m 1162.3384,55.630035 c -0.1811,10.23278 -7.0607,19.15405 -12.0284,23.9036 7.9072,-2.07017 13.7375,-12.75418 16.5967,-19.58692"
         style="fill:#000000;fill-opacity:1;stroke:#000000;stroke-width:0.46528938;stroke-linecap:butt;stroke-linejoin:miter;stroke-miterlimit:4;stroke-opacity:1;stroke-dasharray:none" />
      <path
         sodipodi:nodetypes="cccc"
         inkscape:connector-curvature="0"
         id="path3949"
         d="m 1244.2872,90.645205 c 1.5423,0.46377 2.8317,2.25005 4.0401,4.46082 -1.6322,1.87465 -3.6888,2.48891 -6.1698,1.84276 -0.5505,-1.8898 -1.3827,-3.83304 -0.6211,-5.47417"
         style="fill:#000000;fill-opacity:1;stroke:#000000;stroke-width:3.875;stroke-linecap:butt;stroke-linejoin:miter;stroke-miterlimit:4;stroke-opacity:1;stroke-dasharray:none" />
      <path
         sodipodi:nodetypes="cssssccsssc"
         inkscape:connector-curvature="0"
         id="path3945"
         d="m 1218.4289,40.254375 c 0,0 8.1944,2.78766 9.4858,6.77924 1.2914,3.99157 4.8232,7.85091 5.5276,9.0249 0.7044,1.174 3.6295,5.53261 3.9817,8.58497 0.3522,3.05239 4.8134,18.66648 5.9874,20.66227 1.174,1.99579 2.2306,6.57436 2.2306,6.57436 l -4.109,1.05659 c 0,0 -3.8742,-7.16136 -5.5178,-12.44431 -1.6436,-5.28297 -6.1047,-15.3793 -7.3961,-16.0837 -1.2914,-0.70439 -4.3438,-7.98315 -7.2788,-9.03974 -2.935,-1.05659 -7.7483,-3.05238 -7.7483,-3.05238"
         style="fill:#ffffff;fill-opacity:1;stroke:#000000;stroke-width:2.87750006;stroke-linecap:butt;stroke-linejoin:miter;stroke-miterlimit:4;stroke-opacity:1;stroke-dasharray:none" />
      <path
         sodipodi:nodetypes="ccc"
         inkscape:connector-curvature="0"
         id="path3897"
         d="m 1212.3446,-9.8061548 c 4.3998,1.62823 4.9821,9.73763999 6.8399,13.6972 0.5601,-12.1415 -2.4195,-15.9164002 -5.1171,-20.3579102"
         style="fill:#000000;fill-opacity:1;stroke:#000000;stroke-width:0.36374629;stroke-linecap:round;stroke-linejoin:miter;stroke-miterlimit:4;stroke-opacity:1;stroke-dasharray:none" />
      <path
         sodipodi:nodetypes="ccc"
         inkscape:connector-curvature="0"
         id="path3899"
         d="m 1209.7433,-23.994225 c 6.1079,3.25695 12.5484,9.54881 10.9071,19.6857102 -2.4248,-4.60613 -9.9139,-11.8767802 -13.4332,-13.0642802"
         style="fill:#000000;fill-opacity:1;stroke:#000000;stroke-width:0.36374629;stroke-linecap:butt;stroke-linejoin:miter;stroke-miterlimit:4;stroke-opacity:1;stroke-dasharray:none" />
      <path
         sodipodi:nodetypes="ccc"
         inkscape:connector-curvature="0"
         id="path3901"
         d="m 1208.466,-19.900555 c 5.7288,-1.25388 10.7678,0.98776 17.1089,4.93746 -2.5765,-7.32894 -10.1609,-11.760396 -19.5203,-8.3822"
         style="fill:#000000;fill-opacity:1;stroke:#000000;stroke-width:0.36374629;stroke-linecap:butt;stroke-linejoin:miter;stroke-miterlimit:4;stroke-opacity:1;stroke-dasharray:none" />
      <path
         sodipodi:nodetypes="ccc"
         inkscape:connector-curvature="0"
         id="path3903"
         d="m 1206.3999,-19.708505 c 9.792,-0.2417 14.892,-15.301966 12.2863,-18.486786 -3.553,4.22946 -5.815,9.84881 -14.2383,11.36765"
         style="fill:#000000;fill-opacity:1;stroke:#000000;stroke-width:0.36374629;stroke-linecap:butt;stroke-linejoin:miter;stroke-miterlimit:4;stroke-opacity:1;stroke-dasharray:none" />
      <path
         sodipodi:nodetypes="ccc"
         inkscape:connector-curvature="0"
         id="path3905"
         d="m 1213.5182,-22.541525 c 2.8027,-10.051606 -3.6147,-12.907956 -16.4199,-12.860366 13.5087,0.75682 18.6504,4.88586 15.0421,12.515896"
         style="fill:#000000;fill-opacity:1;stroke:#000000;stroke-width:0.36374629;stroke-linecap:butt;stroke-linejoin:miter;stroke-miterlimit:4;stroke-opacity:1;stroke-dasharray:none" />
      <path
         sodipodi:nodetypes="ccc"
         inkscape:connector-curvature="0"
         id="path3907"
         d="m 1205.4805,-25.182495 c 2.4239,-3.062196 5.0844,-5.769556 5.7412,-11.482466 1.0688,2.75284 -0.3807,6.62492 -4.8226,11.826946"
         style="fill:#000000;fill-opacity:1;stroke:#000000;stroke-width:0.36374629;stroke-linecap:butt;stroke-linejoin:miter;stroke-miterlimit:4;stroke-opacity:1;stroke-dasharray:none" />
      <path
         sodipodi:nodetypes="ccc"
         inkscape:connector-curvature="0"
         id="path3909"
         d="m 1207.5727,-26.803111 c -6.0157,-0.73067 -8.4411,-5.56457 -10.2194,-11.138 10e-4,5.99514 -0.8002,13.290956 4.3633,14.697566"
         style="fill:#000000;fill-opacity:1;stroke:#000000;stroke-width:0.36374629;stroke-linecap:butt;stroke-linejoin:miter;stroke-miterlimit:4;stroke-opacity:1;stroke-dasharray:none" />
      <path
         sodipodi:nodetypes="ccc"
         inkscape:connector-curvature="0"
         id="path3911"
         d="m 1204.7916,-25.412145 c -4.1654,-7.439436 -3.5403,-9.973246 -3.33,-12.286246 0.3668,5.08752 3.2543,12.768756 7.3488,12.401076"
         style="fill:#000000;fill-opacity:1;stroke:#000000;stroke-width:0.36374629;stroke-linecap:butt;stroke-linejoin:miter;stroke-miterlimit:4;stroke-opacity:1;stroke-dasharray:none" />
      <path
         sodipodi:nodetypes="ccc"
         inkscape:connector-curvature="0"
         id="path3913"
         d="m 1198.4762,-23.345295 c -6.1794,-0.12276 -9.1694,-6.558836 -10.7935,-17.338536 1.1365,8.04056 1.1583,17.567496 5.7412,21.012926"
         style="fill:#000000;fill-opacity:1;stroke:#000000;stroke-width:0.36374629;stroke-linecap:butt;stroke-linejoin:miter;stroke-miterlimit:4;stroke-opacity:1;stroke-dasharray:none" />
      <path
         sodipodi:nodetypes="ccc"
         inkscape:connector-curvature="0"
         id="path3915"
         d="m 1205.4805,-24.952845 c -2.6959,-10.376026 -10.6297,-10.292346 -19.4054,-5.856056 12.8352,-10.8928 20.3684,0.86232 22.7353,6.889476"
         style="fill:#000000;fill-opacity:1;stroke:#000000;stroke-width:0.36374629;stroke-linecap:butt;stroke-linejoin:miter;stroke-miterlimit:4;stroke-opacity:1;stroke-dasharray:none" />
      <path
         sodipodi:nodetypes="ccc"
         inkscape:connector-curvature="0"
         id="path3917"
         d="m 1203.7949,-27.465511 c -15.2147,0.0546 -31.2844,-0.48557 -32.8398,9.071156 5.232,-9.202706 19.7452,-5.71861 29.5099,-4.47817"
         style="fill:#000000;fill-opacity:1;stroke:#000000;stroke-width:0.36374629;stroke-linecap:butt;stroke-linejoin:miter;stroke-miterlimit:4;stroke-opacity:1;stroke-dasharray:none" />
      <path
         sodipodi:nodetypes="ccc"
         inkscape:connector-curvature="0"
         id="path3919"
         d="m 1195.1839,-24.759995 c -13.3573,0.27183 -23.7513,5.34272 -29.1655,17.2237202 9.7937,-8.4287802 22.045,-12.6330102 27.9024,-12.7455502"
         style="fill:#000000;fill-opacity:1;stroke:#000000;stroke-width:0.36374629;stroke-linecap:butt;stroke-linejoin:miter;stroke-miterlimit:4;stroke-opacity:1;stroke-dasharray:none" />
      <path
         sodipodi:nodetypes="ccc"
         inkscape:connector-curvature="0"
         id="path3921"
         d="m 1193.5763,-21.889365 c -9.0852,3.84918 -19.5552,3.04618 -27.7876,19.2905502 9.4667,-4.92713 17.2436,-10.5624402 26.2949,-11.3676502"
         style="fill:#000000;fill-opacity:1;stroke:#000000;stroke-width:0.36374629;stroke-linecap:butt;stroke-linejoin:miter;stroke-miterlimit:4;stroke-opacity:1;stroke-dasharray:none" />
      <path
         sodipodi:nodetypes="ccc"
         inkscape:connector-curvature="0"
         id="path3923"
         d="m 1187.0313,-12.129265 c -7.4641,7.1989902 -18.5362,10.2971302 -21.2426,15.7309902 8.2614,-7.24515 11.7122,-4.66954 22.7354,-12.5159"
         style="fill:#000000;fill-opacity:1;stroke:#000000;stroke-width:0.36374629;stroke-linecap:butt;stroke-linejoin:miter;stroke-miterlimit:4;stroke-opacity:1;stroke-dasharray:none" />
      <path
         sodipodi:nodetypes="ccc"
         inkscape:connector-curvature="0"
         id="path3925"
         d="m 1186.9165,-5.1249548 c -6.8659,2.11072 -11.2832,8.30331 -17.683,15.3865198 9.3012,-8.7811398 9.581,-5.1413398 17.3385,-12.0566098"
         style="fill:#000000;fill-opacity:1;stroke:#000000;stroke-width:0.36374629;stroke-linecap:butt;stroke-linejoin:miter;stroke-miterlimit:4;stroke-opacity:1;stroke-dasharray:none" />
      <path
         sodipodi:nodetypes="ccc"
         inkscape:connector-curvature="0"
         id="path3927"
         d="m 1187.4906,1.3052252 c -5.5688,4.61208 -8.1015,11.8554098 -15.9606,17.4533698 6.7195,-2.42989 9.9677,-6.18486 14.9272,-13.4344998"
         style="fill:#000000;fill-opacity:1;stroke:#000000;stroke-width:0.36374629;stroke-linecap:butt;stroke-linejoin:miter;stroke-miterlimit:4;stroke-opacity:1;stroke-dasharray:none" />
      <path
         sodipodi:nodetypes="ccc"
         inkscape:connector-curvature="0"
         id="path3929"
         d="m 1184.2755,7.3909452 c -1.6659,3.9058098 -4.206,8.3772098 -11.0232,15.6161698 4.2652,-2.66034 8.5265,-5.26341 13.0901,-12.40108"
         style="fill:#000000;fill-opacity:1;stroke:#000000;stroke-width:0.36374629;stroke-linecap:butt;stroke-linejoin:miter;stroke-miterlimit:4;stroke-opacity:1;stroke-dasharray:none" />
      <path
         sodipodi:nodetypes="ccc"
         inkscape:connector-curvature="0"
         id="path3931"
         d="m 1183.4718,10.835685 c -1.2414,4.03828 -3.6928,9.00189 -10.1046,16.99406 3.9699,-2.02963 7.9274,-4.28207 11.5973,-11.71212"
         style="fill:#000000;fill-opacity:1;stroke:#000000;stroke-width:0.36374629;stroke-linecap:butt;stroke-linejoin:miter;stroke-miterlimit:4;stroke-opacity:1;stroke-dasharray:none" />
      <path
         sodipodi:nodetypes="cccc"
         inkscape:connector-curvature="0"
         id="path3937"
         d="m 1189.0595,81.380415 c 1.6575,0.24133 3.3368,1.55375 4.7733,3.34131 -0.7577,3.30722 -2.6563,3.81387 -4.6072,4.19219 -2.1972,-1.89547 -2.2715,-3.66643 -2.7603,-5.56193"
         style="fill:#000000;fill-opacity:1;stroke:#000000;stroke-width:3.875;stroke-linecap:butt;stroke-linejoin:miter;stroke-miterlimit:4;stroke-opacity:1;stroke-dasharray:none" />
      <path
         sodipodi:nodetypes="ccssssccc"
         inkscape:connector-curvature="0"
         id="path3971"
         d="m 1219.0228,31.345085 4.7808,9.21549 c -0.048,1.52868 -3.8012,4.01492 -4.6101,6.30687 -0.9962,2.82246 -1.8464,6.47507 -3.6727,8.13534 -1.8263,1.66028 -5.2809,4.98936 -8.6133,6.14303 -4.4502,1.54062 -11.2899,1.66027 -14.1124,0.66411 -2.8224,-0.99617 -14.031,-2.732 -16.788,-5.54488 -0.834,1.39008 6.4341,8.41414 5.8757,11.75038 l -11.7451,-18.36841"
         style="fill:#ffffff;fill-opacity:1;stroke:#000000;stroke-width:2.05999994;stroke-linecap:round;stroke-linejoin:round;stroke-miterlimit:4;stroke-opacity:1;stroke-dasharray:none" />
      <path
         inkscape:connector-curvature="0"
         id="path3979"
         d="m 1197.4439,-9.1668548 -15.6896,58.2756698 38.9335,-16.10467 -18.097,-27.5605698"
         style="fill:#ffffff;fill-opacity:1;stroke:none" />
      <path
         sodipodi:nodetypes="cssc"
         inkscape:connector-curvature="0"
         id="path3973"
         d="m 1203.4209,5.5265852 c 0,0 2.461,8.8575698 5.977,11.2898698 2.3965,1.65783 6.5375,5.07359 9.6708,10.0077 3.2442,5.10873 5.01,13.653 4.0633,15.60327"
         style="fill:#ffffff;fill-opacity:1;stroke:#000000;stroke-width:3.44899988;stroke-linecap:round;stroke-linejoin:round;stroke-miterlimit:4;stroke-opacity:1;stroke-dasharray:none" />
      <path
         sodipodi:nodetypes="ccccsssscsssssccsssc"
         id="path3942"
         d="m 1191.1382,28.884815 -23.4546,16.03981 13.5212,23.70062 -8.736,0.61123 c -5.9852,-3.97956 -9.158,-9.63561 -11.0066,-16.42743 -2.0732,-7.61709 -1.9471,-16.35646 0.9704,-21.60218 3.0199,-5.42965 8.8922,-8.32917 13.7835,-10.9369 3.3459,-1.78383 6.2189,-2.40521 7.4026,-5.13749 1.8172,-4.19471 2.1008,-6.7440398 2.0631,-11.1063898 -0.025,-2.92026 0.4745,-7.85975 0.222,-10.786 -0.5033,-5.8353102 2.0094,-10.8392002 4.6831,-14.2360902 2.2982,-2.91977 6.2248,-4.58538 8.59,-5.274216 3.6986,-1.07718 7.2931,-0.99451 9.8678,1.650516 1.3645,1.40169 2.1575,3.37522 3.1533,6.60136 0.8723,2.82601 0.089,8.8674202 1.0501,12.8443402 0.166,1.16219 2.9884,9.13152 3.9016,10.95782 0.9132,1.8263 2.3244,6.7241098 -0.083,9.1315098 -2.4074,2.4074 -5.5619,1.90932 -6.8071,1.07918 -1.2452,-0.83013 -5.645,-6.3090398 -8.1354,-9.8786398 -2.4904,-3.56959 -3.0715,-7.63726 -3.0715,-7.63726"
         style="fill:#ffffff;fill-opacity:1;stroke:#000000;stroke-width:3.14899993;stroke-linecap:round;stroke-linejoin:round;stroke-miterlimit:4;stroke-opacity:1;stroke-dasharray:none"
         inkscape:connector-curvature="0" />
      <path
         sodipodi:nodetypes="cccc"
         inkscape:connector-curvature="0"
         id="path3947"
         d="m 1218.8682,82.560985 c 2.0745,0.90638 3.2663,2.53489 3.9383,4.58864 -1.3824,1.85324 -3.5525,2.33846 -5.7438,2.78695 -0.5216,-1.95516 -1.3777,-3.74802 -0.4439,-6.40935"
         style="fill:#000000;fill-opacity:1;stroke:#000000;stroke-width:3.875;stroke-linecap:butt;stroke-linejoin:miter;stroke-miterlimit:4;stroke-opacity:1;stroke-dasharray:none" />
      <path
         sodipodi:nodetypes="csccssc"
         inkscape:connector-curvature="0"
         id="path3940"
         d="m 1197.3,59.329095 c 0,0 9.2754,7.95973 11.4338,12.11042 2.1584,4.1507 7.8033,13.44824 7.8033,13.44824 l 2.8225,-1.99233 c 0,0 -1.8263,-6.80714 -1.8263,-9.96166 0,-3.15452 -1.1622,-8.30137 -4.4828,-10.45973 -3.3205,-2.15836 -5.5595,-6.61457 -5.5595,-6.61457"
         style="fill:#ffffff;fill-opacity:1;stroke:#000000;stroke-width:2.87750006;stroke-linecap:round;stroke-linejoin:miter;stroke-miterlimit:4;stroke-opacity:1;stroke-dasharray:none" />
      <path
         sodipodi:nodetypes="csccssc"
         inkscape:connector-curvature="0"
         d="m 1168.9803,63.586895 c 0,0 5.8699,9.74415 8.3353,12.79653 2.4654,3.05236 10.0006,8.00623 10.0006,8.00623 l 2.8018,-2.42813 c -3.1126,-3.707 -5.6773,-8.02479 -6.4544,-9.44283 -1.6768,-3.05981 0.6641,-6.72411 -2.3244,-11.37288 -1.6706,-2.59874 -7.4712,-5.56192 -7.4712,-5.56192"
         style="fill:#ffffff;fill-opacity:1;fill-rule:nonzero;stroke:#000000;stroke-width:3.75200009;stroke-linecap:round;stroke-linejoin:miter;stroke-miterlimit:4;stroke-opacity:1;stroke-dasharray:none"
         id="path3935" />
      <path
         transform="matrix(1.8725599,0,0,1.8725599,-89.485806,-167.29526)"
         d="m 693.39287,82.45536 c 0,0.961568 -0.77951,1.741072 -1.74108,1.741072 -0.96156,0 -1.74107,-0.779504 -1.74107,-1.741072 0,-0.961567 0.77951,-1.741071 1.74107,-1.741071 0.96157,0 1.74108,0.779504 1.74108,1.741071 z"
         sodipodi:ry="1.7410715"
         sodipodi:rx="1.7410715"
         sodipodi:cy="82.45536"
         sodipodi:cx="691.65179"
         id="path3951"
         style="fill:#ffffff;fill-opacity:1;fill-rule:nonzero;stroke:#000000;stroke-width:0.92013079;stroke-linecap:round;stroke-linejoin:round;stroke-miterlimit:4;stroke-opacity:1;stroke-dasharray:none;stroke-dashoffset:0"
         sodipodi:type="arc" />
      <path
         transform="matrix(1.9973128,0,0,1.9973128,-175.2838,-176.21139)"
         d="m 691.51784,82.14286 c 0,0.246556 -0.19987,0.446429 -0.44643,0.446429 -0.24655,0 -0.44643,-0.199873 -0.44643,-0.446429 0,-0.246555 0.19988,-0.446428 0.44643,-0.446428 0.24656,0 0.44643,0.199873 0.44643,0.446428 z"
         sodipodi:ry="0.44642857"
         sodipodi:rx="0.44642857"
         sodipodi:cy="82.14286"
         sodipodi:cx="691.07141"
         id="path3953"
         style="fill:#000000;fill-opacity:1;fill-rule:nonzero;stroke:#000000;stroke-width:0.4023208;stroke-linecap:round;stroke-linejoin:round;stroke-miterlimit:4;stroke-opacity:1;stroke-dasharray:none;stroke-dashoffset:0"
         sodipodi:type="arc" />
      <path
         inkscape:connector-curvature="0"
         d="m 1225.5397,-45.234751 c 39.513,17.15991 57.6337,63.102306 40.4738,102.615216 -17.1599,39.5129 -63.1023,57.633615 -102.6152,40.47371 -39.513,-17.1599 -57.6337,-63.1023 -40.4738,-102.6152098 17.1599,-39.5129062 63.1023,-57.6336162 102.6152,-40.4737162 z m 7.9669,-18.34473 c 49.6444,21.55988 72.4115,79.282376 50.8516,128.926796 -21.5599,49.644435 -79.2823,72.411475 -128.9268,50.851595 -49.6444,-21.559875 -72.4115,-79.282365 -50.8516,-128.926805 21.5599,-49.644416 79.2823,-72.411456 128.9268,-50.851586 z"
         style="fill:#000000;fill-opacity:1;fill-rule:evenodd;stroke:none"
         id="circle" />
      <path
         sodipodi:nodetypes="cc"
         inkscape:connector-curvature="0"
         id="path4129"
         d="m 1216.9936,10.453495 c -1.8459,-0.7161698 -2.8412,0.69456 -3.75,2.32143"
         style="fill:none;stroke:#000000;stroke-width:1.27499998;stroke-linecap:round;stroke-linejoin:miter;stroke-miterlimit:4;stroke-opacity:1;stroke-dasharray:none" />
      <path
         sodipodi:nodetypes="ccccccccc"
         inkscape:connector-curvature="0"
         id="path4149"
         d="m 1193.4588,21.511485 -27.5266,17.17259 -2.5254,6.81853 4.6022,14.44521 11.0552,3.16933 c -0.8387,-3.59469 -3.984,-6.05295 -6.6584,-9.07943 2.616,0.64684 8.9164,4.87304 12.5299,1.88209 l 17.6145,-30.11517 z"
         style="fill:#ffffff;fill-opacity:1;stroke:none" />
      <path
         sodipodi:nodetypes="cc"
         inkscape:connector-curvature="0"
         id="path4151"
         d="m 1215.8085,15.450565 c -1.5301,-2.01842 -1.2882,-1.83711 -3.6618,-3.53553"
         style="fill:none;stroke:#000000;stroke-width:2;stroke-linecap:round;stroke-linejoin:miter;stroke-miterlimit:4;stroke-opacity:1;stroke-dasharray:none" />
      <path
         sodipodi:nodetypes="cssssscssssssc"
         inkscape:connector-curvature="0"
         id="path4328"
         d="m 1175.3865,68.132065 c 0,0 -4.4643,-8.03572 -5.5357,-10.71429 -1.0714,-2.67857 -2.8622,-5.80856 -3.9719,-10.48712 -1.2447,-5.24742 -1.9337,-9.84123 3.8406,-15.76754 4.3622,-4.47711 14.1002,-7.66806 16.8557,-10.6448 7.6531,-8.26773 4.3309,-11.1226298 3.7859,-19.97290981 -1.0796,-17.53182019 2.7495,-18.18678019 6.2754,-23.48477019 -2.8571,-0.17857 -7.8571,6.42857 -7.8571,9.10714 0,2.67857 -2.1429,11.6071402 -1.4286,17.1428602 0.7143,5.53571 1.25,11.9642798 -2.6786,14.6428598 -3.9286,2.67857 -12.1428,5.71428 -15.3571,8.75 -3.2143,3.03571 -7.8572,7.5 -7.5,13.21428 0.3571,5.71429 1.6071,13.39286 4.1071,16.96429 2.5,3.57143 9.4643,11.25 9.4643,11.25 z"
         style="fill:#000000;fill-opacity:1;stroke:#000000;stroke-width:1px;stroke-linecap:butt;stroke-linejoin:miter;stroke-opacity:1" />
      <path
         sodipodi:nodetypes="ccc"
         inkscape:connector-curvature="0"
         id="path4330"
         d="m 1175.0294,53.040155 c 21.1796,15.86055 56.3241,4.92467 41.6071,-28.03571 5.433,38.03451 -21.9883,33.64533 -41.6071,28.03571 z"
         style="fill:#000000;fill-opacity:1;stroke:#000000;stroke-width:1px;stroke-linecap:butt;stroke-linejoin:miter;stroke-opacity:1" />
      <path
         sodipodi:nodetypes="ccc"
         inkscape:connector-curvature="0"
         id="path4335"
         d="m 1224.5011,47.499175 c 4.0118,5.32689 9.1615,14.29475 16.5997,37.06146 -5.1585,-21.31106 -12.394,-35.36773 -16.5997,-37.06146 z"
         style="fill:#000000;fill-opacity:1;stroke:#000000;stroke-width:1px;stroke-linecap:butt;stroke-linejoin:miter;stroke-opacity:1" />
      <path
         sodipodi:nodetypes="ccc"
         inkscape:connector-curvature="0"
         id="path4337"
         d="m 1205.8604,59.434365 c 4.8262,4.6556 8.4299,10.33006 11.2379,16.66751 -1.1859,-4.95612 -2.1855,-10.35569 -11.2379,-16.66751 z"
         style="fill:#000000;fill-opacity:1;stroke:#000000;stroke-width:1px;stroke-linecap:butt;stroke-linejoin:miter;stroke-opacity:1" />
      <path
         sodipodi:nodetypes="csccc"
         transform="translate(32.329983,2.81879)"
         inkscape:connector-curvature="0"
         id="path5050"
         d="m 1181.2244,11.833708 c -5.0226,2.41365 -8.9698,-5.8941598 -10.8779,-8.8956246 -2.2644,-3.56180293 -7.7309,-12.0617084 -7.6826,-14.2691734 l 14.0375,5.7650484 c -2.0391,6.20916179 -5.2924,11.7651481 4.523,17.3997496 z"
         style="fill:#ffffff;fill-opacity:1;stroke:none" />
      <path
         transform="translate(32.329983,2.81879)"
         sodipodi:nodetypes="cccc"
         inkscape:connector-curvature="0"
         id="path5052"
         d="m 1182.5099,25.36988 c 6.4701,-3.911833 -16.1801,-15.5014067 -17.9303,-31.4409978 l -1.1364,18.9403598 z"
         style="fill:#ffffff;fill-opacity:1;stroke:none" />
    </g>
  </g>
</svg>
